<mxfile host="app.diagrams.net" modified="2024-06-17T14:52:49.670Z" agent="Mozilla/5.0 (Windows NT 10.0; Win64; x64) AppleWebKit/537.36 (KHTML, like Gecko) Chrome/126.0.0.0 Safari/537.36" etag="61dcGVK530ktuTH9famY" version="24.5.4" type="github">
  <diagram name="Page-1" id="FQDThDNy41egxpSTMpC8">
    <mxGraphModel dx="1793" dy="1083" grid="1" gridSize="10" guides="1" tooltips="1" connect="1" arrows="1" fold="1" page="1" pageScale="1" pageWidth="850" pageHeight="1100" math="0" shadow="0">
      <root>
        <mxCell id="0" />
        <mxCell id="1" parent="0" />
        <mxCell id="azn0IxoJgEsQa8XEMjjl-41" style="edgeStyle=orthogonalEdgeStyle;rounded=0;orthogonalLoop=1;jettySize=auto;html=1;" edge="1" parent="1" source="azn0IxoJgEsQa8XEMjjl-40">
          <mxGeometry relative="1" as="geometry">
            <mxPoint x="373" y="345" as="targetPoint" />
          </mxGeometry>
        </mxCell>
        <mxCell id="azn0IxoJgEsQa8XEMjjl-40" value="" style="whiteSpace=wrap;html=1;" vertex="1" parent="1">
          <mxGeometry x="143" y="270" width="160" height="150" as="geometry" />
        </mxCell>
        <mxCell id="azn0IxoJgEsQa8XEMjjl-1" value="&lt;table cellpadding=&quot;0&quot; cellspacing=&quot;0&quot; style=&quot;width:100%;height:100%;&quot;&gt;&lt;tr style=&quot;height:25%;&quot;&gt;&lt;td&gt;&lt;/td&gt;&lt;/tr&gt;&lt;tr style=&quot;height:75%;&quot;&gt;&lt;td align=&quot;left&quot; style=&quot;padding-left:11%;width:100%&quot;&gt;T&lt;/td&gt;&lt;/tr&gt;&lt;/table&gt;" style="shape=mxgraph.pid.compressors.centrifugal_compressor_-_turbine_driven;dashed=0;fontSize=8;html=1;overflow=fill;" vertex="1" parent="1">
          <mxGeometry x="173" y="311.5" width="100" height="70" as="geometry" />
        </mxCell>
        <mxCell id="azn0IxoJgEsQa8XEMjjl-18" value="" style="verticalLabelPosition=bottom;align=center;dashed=0;html=1;verticalAlign=top;shape=mxgraph.pid.piping.flange_in;pointerEvents=1;" vertex="1" parent="1">
          <mxGeometry x="780" y="249.75" width="10" height="20" as="geometry" />
        </mxCell>
        <mxCell id="azn0IxoJgEsQa8XEMjjl-29" value="" style="edgeStyle=none;orthogonalLoop=1;jettySize=auto;html=1;rounded=0;" edge="1" parent="1">
          <mxGeometry width="80" relative="1" as="geometry">
            <mxPoint x="40" y="340" as="sourcePoint" />
            <mxPoint x="143" y="340" as="targetPoint" />
            <Array as="points" />
          </mxGeometry>
        </mxCell>
        <mxCell id="azn0IxoJgEsQa8XEMjjl-30" value="COG supply at TOP" style="text;html=1;align=center;verticalAlign=middle;resizable=0;points=[];autosize=1;strokeColor=none;fillColor=none;" vertex="1" parent="1">
          <mxGeometry x="13" y="299.75" width="130" height="30" as="geometry" />
        </mxCell>
        <mxCell id="azn0IxoJgEsQa8XEMjjl-33" value="" style="verticalLabelPosition=bottom;align=center;dashed=0;html=1;verticalAlign=top;shape=mxgraph.pid.piping.flange_in;pointerEvents=1;" vertex="1" parent="1">
          <mxGeometry x="780" y="552.5" width="10" height="20" as="geometry" />
        </mxCell>
        <mxCell id="azn0IxoJgEsQa8XEMjjl-34" style="edgeStyle=none;rounded=0;orthogonalLoop=1;jettySize=auto;html=1;entryX=1.079;entryY=0.552;entryDx=0;entryDy=0;entryPerimeter=0;endArrow=none;endFill=0;" edge="1" parent="1" source="azn0IxoJgEsQa8XEMjjl-33">
          <mxGeometry relative="1" as="geometry">
            <mxPoint x="591.5800000000002" y="561.29" as="targetPoint" />
          </mxGeometry>
        </mxCell>
        <mxCell id="azn0IxoJgEsQa8XEMjjl-42" value="" style="edgeStyle=none;orthogonalLoop=1;jettySize=auto;html=1;rounded=0;entryX=0;entryY=0.659;entryDx=0;entryDy=0;entryPerimeter=0;" edge="1" parent="1" target="azn0IxoJgEsQa8XEMjjl-49">
          <mxGeometry width="100" relative="1" as="geometry">
            <mxPoint x="373" y="300.96000000000004" as="sourcePoint" />
            <mxPoint x="460.72000000000025" y="301.01" as="targetPoint" />
            <Array as="points">
              <mxPoint x="520" y="301" />
              <mxPoint x="520" y="260" />
            </Array>
          </mxGeometry>
        </mxCell>
        <mxCell id="azn0IxoJgEsQa8XEMjjl-44" style="edgeStyle=orthogonalEdgeStyle;rounded=0;orthogonalLoop=1;jettySize=auto;html=1;entryX=0;entryY=0.5;entryDx=0;entryDy=0;entryPerimeter=0;endArrow=none;endFill=0;" edge="1" parent="1" source="azn0IxoJgEsQa8XEMjjl-49" target="azn0IxoJgEsQa8XEMjjl-18">
          <mxGeometry relative="1" as="geometry">
            <mxPoint x="590" y="259.75" as="sourcePoint" />
            <Array as="points">
              <mxPoint x="690" y="259.5" />
            </Array>
          </mxGeometry>
        </mxCell>
        <mxCell id="azn0IxoJgEsQa8XEMjjl-3" value="" style="verticalLabelPosition=bottom;align=center;outlineConnect=0;dashed=0;html=1;verticalAlign=top;shape=mxgraph.pid.flow_sensors.vortex;" vertex="1" parent="1">
          <mxGeometry x="630" y="247.5" width="20" height="22.5" as="geometry" />
        </mxCell>
        <mxCell id="azn0IxoJgEsQa8XEMjjl-45" value="" style="edgeStyle=none;orthogonalLoop=1;jettySize=auto;html=1;rounded=0;entryX=-0.175;entryY=0.68;entryDx=0;entryDy=0;entryPerimeter=0;" edge="1" parent="1" target="azn0IxoJgEsQa8XEMjjl-52">
          <mxGeometry width="100" relative="1" as="geometry">
            <mxPoint x="373" y="300" as="sourcePoint" />
            <mxPoint x="463" y="610" as="targetPoint" />
            <Array as="points">
              <mxPoint x="373" y="610" />
              <mxPoint x="520" y="610" />
              <mxPoint x="520" y="560" />
            </Array>
          </mxGeometry>
        </mxCell>
        <mxCell id="azn0IxoJgEsQa8XEMjjl-32" value="" style="verticalLabelPosition=bottom;align=center;outlineConnect=0;dashed=0;html=1;verticalAlign=top;shape=mxgraph.pid.flow_sensors.vortex;" vertex="1" parent="1">
          <mxGeometry x="630" y="550.25" width="20" height="22.5" as="geometry" />
        </mxCell>
        <mxCell id="azn0IxoJgEsQa8XEMjjl-46" value="" style="verticalLabelPosition=bottom;align=center;dashed=0;html=1;verticalAlign=top;shape=mxgraph.pid.piping.concentric_reducer;" vertex="1" parent="1">
          <mxGeometry x="770" y="78.5" width="80" height="40" as="geometry" />
        </mxCell>
        <mxCell id="azn0IxoJgEsQa8XEMjjl-21" value="" style="edgeStyle=none;rounded=0;orthogonalLoop=1;jettySize=auto;html=1;entryX=0.627;entryY=0.125;entryDx=0;entryDy=0;entryPerimeter=0;endArrow=blockThin;endFill=0;" edge="1" parent="1" target="azn0IxoJgEsQa8XEMjjl-46">
          <mxGeometry relative="1" as="geometry">
            <mxPoint x="810" y="78.5" as="targetPoint" />
            <mxPoint x="690" y="258.5" as="sourcePoint" />
            <Array as="points">
              <mxPoint x="690" y="58.5" />
              <mxPoint x="780" y="58.5" />
            </Array>
          </mxGeometry>
        </mxCell>
        <mxCell id="azn0IxoJgEsQa8XEMjjl-47" value="" style="verticalLabelPosition=bottom;align=center;dashed=0;html=1;verticalAlign=top;shape=mxgraph.pid.piping.concentric_reducer;" vertex="1" parent="1">
          <mxGeometry x="770" y="380" width="80" height="40" as="geometry" />
        </mxCell>
        <mxCell id="azn0IxoJgEsQa8XEMjjl-48" value="" style="edgeStyle=none;rounded=0;orthogonalLoop=1;jettySize=auto;html=1;entryX=0.627;entryY=0.125;entryDx=0;entryDy=0;entryPerimeter=0;endArrow=blockThin;endFill=0;" edge="1" parent="1" target="azn0IxoJgEsQa8XEMjjl-47">
          <mxGeometry relative="1" as="geometry">
            <mxPoint x="810" y="380" as="targetPoint" />
            <mxPoint x="690" y="560" as="sourcePoint" />
            <Array as="points">
              <mxPoint x="690" y="360" />
              <mxPoint x="770" y="360" />
              <mxPoint x="780" y="360" />
            </Array>
          </mxGeometry>
        </mxCell>
        <mxCell id="azn0IxoJgEsQa8XEMjjl-36" value="" style="verticalLabelPosition=bottom;align=center;outlineConnect=0;dashed=0;html=1;verticalAlign=top;shape=mxgraph.pid.flow_sensors.vortex;direction=north;" vertex="1" parent="1">
          <mxGeometry x="678.75" y="431.25" width="22.5" height="20" as="geometry" />
        </mxCell>
        <mxCell id="azn0IxoJgEsQa8XEMjjl-37" value="" style="verticalLabelPosition=bottom;align=center;html=1;verticalAlign=top;pointerEvents=1;dashed=0;shape=mxgraph.pid2valves.valve;valveType=gate;actuator=diaph;direction=north;" vertex="1" parent="1">
          <mxGeometry x="670" y="481.25" width="28.75" height="30" as="geometry" />
        </mxCell>
        <mxCell id="azn0IxoJgEsQa8XEMjjl-22" value="" style="verticalLabelPosition=bottom;align=center;outlineConnect=0;dashed=0;html=1;verticalAlign=top;shape=mxgraph.pid.flow_sensors.vortex;direction=north;" vertex="1" parent="1">
          <mxGeometry x="678.75" y="128.5" width="22.5" height="20" as="geometry" />
        </mxCell>
        <mxCell id="azn0IxoJgEsQa8XEMjjl-24" value="" style="verticalLabelPosition=bottom;align=center;html=1;verticalAlign=top;pointerEvents=1;dashed=0;shape=mxgraph.pid2valves.valve;valveType=gate;actuator=diaph;direction=north;" vertex="1" parent="1">
          <mxGeometry x="670" y="178.5" width="28.75" height="30" as="geometry" />
        </mxCell>
        <mxCell id="azn0IxoJgEsQa8XEMjjl-51" value="" style="edgeStyle=orthogonalEdgeStyle;rounded=0;orthogonalLoop=1;jettySize=auto;html=1;entryX=0;entryY=0.5;entryDx=0;entryDy=0;entryPerimeter=0;endArrow=none;endFill=0;" edge="1" parent="1" target="azn0IxoJgEsQa8XEMjjl-49">
          <mxGeometry relative="1" as="geometry">
            <mxPoint x="590" y="259.75" as="sourcePoint" />
            <mxPoint x="780" y="259.5" as="targetPoint" />
          </mxGeometry>
        </mxCell>
        <mxCell id="azn0IxoJgEsQa8XEMjjl-49" value="" style="verticalLabelPosition=bottom;align=center;html=1;verticalAlign=top;pointerEvents=1;dashed=0;shape=mxgraph.pid2valves.valve;valveType=gate;actuator=powered" vertex="1" parent="1">
          <mxGeometry x="570" y="239.75" width="30" height="30" as="geometry" />
        </mxCell>
        <mxCell id="azn0IxoJgEsQa8XEMjjl-50" value="" style="part=1;strokeColor=none;fillColor=none;fontStyle=1;fontSize=14;" vertex="1" parent="azn0IxoJgEsQa8XEMjjl-49">
          <mxGeometry x="9.75" width="10.5" height="10.5" as="geometry" />
        </mxCell>
        <mxCell id="azn0IxoJgEsQa8XEMjjl-52" value="" style="verticalLabelPosition=bottom;align=center;html=1;verticalAlign=top;pointerEvents=1;dashed=0;shape=mxgraph.pid2valves.valve;valveType=gate;actuator=powered" vertex="1" parent="1">
          <mxGeometry x="570" y="540" width="30" height="30" as="geometry" />
        </mxCell>
        <mxCell id="azn0IxoJgEsQa8XEMjjl-53" value="" style="part=1;strokeColor=none;fillColor=none;fontStyle=1;fontSize=14;" vertex="1" parent="azn0IxoJgEsQa8XEMjjl-52">
          <mxGeometry x="9.75" width="10.5" height="10.5" as="geometry" />
        </mxCell>
        <mxCell id="azn0IxoJgEsQa8XEMjjl-54" value="3 x 33% Compressor&amp;nbsp;&lt;div&gt;Total flow 56000 Nm3/h&lt;/div&gt;" style="text;html=1;align=center;verticalAlign=middle;resizable=0;points=[];autosize=1;strokeColor=none;fillColor=none;" vertex="1" parent="1">
          <mxGeometry x="148" y="203.5" width="150" height="40" as="geometry" />
        </mxCell>
        <mxCell id="azn0IxoJgEsQa8XEMjjl-55" value="BF3&amp;nbsp;&lt;div&gt;x 36 Tuyeres&lt;/div&gt;&lt;div&gt;x 42 (Future)&lt;/div&gt;" style="text;html=1;align=center;verticalAlign=middle;resizable=0;points=[];autosize=1;strokeColor=none;fillColor=none;" vertex="1" parent="1">
          <mxGeometry x="720" y="128.5" width="90" height="60" as="geometry" />
        </mxCell>
        <mxCell id="azn0IxoJgEsQa8XEMjjl-56" value="BF4&amp;nbsp;&lt;div&gt;x 36 Tuyeres&lt;/div&gt;" style="text;html=1;align=center;verticalAlign=middle;resizable=0;points=[];autosize=1;strokeColor=none;fillColor=none;" vertex="1" parent="1">
          <mxGeometry x="725" y="453" width="90" height="40" as="geometry" />
        </mxCell>
        <mxCell id="azn0IxoJgEsQa8XEMjjl-57" value="32407 Nm3/h" style="text;html=1;align=center;verticalAlign=middle;resizable=0;points=[];autosize=1;strokeColor=none;fillColor=none;" vertex="1" parent="1">
          <mxGeometry x="390" y="269.75" width="100" height="30" as="geometry" />
        </mxCell>
        <mxCell id="azn0IxoJgEsQa8XEMjjl-58" value="23148 Nm3/h" style="text;html=1;align=center;verticalAlign=middle;resizable=0;points=[];autosize=1;strokeColor=none;fillColor=none;" vertex="1" parent="1">
          <mxGeometry x="400" y="580" width="100" height="30" as="geometry" />
        </mxCell>
        <mxCell id="azn0IxoJgEsQa8XEMjjl-59" value="P = 8.0 barg" style="text;html=1;align=center;verticalAlign=middle;resizable=0;points=[];autosize=1;strokeColor=none;fillColor=none;" vertex="1" parent="1">
          <mxGeometry x="213" y="385" width="90" height="30" as="geometry" />
        </mxCell>
        <mxCell id="azn0IxoJgEsQa8XEMjjl-60" value="P = (8.0 - 6.0) barg" style="text;html=1;align=center;verticalAlign=middle;resizable=0;points=[];autosize=1;strokeColor=none;fillColor=none;" vertex="1" parent="1">
          <mxGeometry x="690" y="209.75" width="120" height="30" as="geometry" />
        </mxCell>
        <mxCell id="azn0IxoJgEsQa8XEMjjl-61" value="P = (8.0 - 6.0) barg" style="text;html=1;align=center;verticalAlign=middle;resizable=0;points=[];autosize=1;strokeColor=none;fillColor=none;" vertex="1" parent="1">
          <mxGeometry x="690" y="511.25" width="120" height="30" as="geometry" />
        </mxCell>
        <mxCell id="azn0IxoJgEsQa8XEMjjl-68" style="edgeStyle=orthogonalEdgeStyle;rounded=0;orthogonalLoop=1;jettySize=auto;html=1;" edge="1" parent="1" source="azn0IxoJgEsQa8XEMjjl-63">
          <mxGeometry relative="1" as="geometry">
            <mxPoint x="675" y="560" as="targetPoint" />
          </mxGeometry>
        </mxCell>
        <mxCell id="azn0IxoJgEsQa8XEMjjl-63" value="Nitrogen / Steam Purge" style="text;html=1;align=center;verticalAlign=middle;resizable=0;points=[];autosize=1;strokeColor=none;fillColor=none;" vertex="1" parent="1">
          <mxGeometry x="600" y="610" width="150" height="30" as="geometry" />
        </mxCell>
        <mxCell id="azn0IxoJgEsQa8XEMjjl-65" value="Nitrogen / Steam Purge" style="text;html=1;align=center;verticalAlign=middle;resizable=0;points=[];autosize=1;strokeColor=none;fillColor=none;" vertex="1" parent="1">
          <mxGeometry x="615" y="299.75" width="150" height="30" as="geometry" />
        </mxCell>
        <mxCell id="azn0IxoJgEsQa8XEMjjl-66" value="" style="edgeStyle=none;orthogonalLoop=1;jettySize=auto;html=1;rounded=0;" edge="1" parent="1">
          <mxGeometry width="100" relative="1" as="geometry">
            <mxPoint x="670" y="300" as="sourcePoint" />
            <mxPoint x="670" y="260" as="targetPoint" />
            <Array as="points" />
          </mxGeometry>
        </mxCell>
        <mxCell id="azn0IxoJgEsQa8XEMjjl-69" value="" style="edgeStyle=none;orthogonalLoop=1;jettySize=auto;html=1;rounded=0;entryX=0.552;entryY=0.989;entryDx=0;entryDy=0;entryPerimeter=0;" edge="1" parent="1" target="azn0IxoJgEsQa8XEMjjl-40">
          <mxGeometry width="100" relative="1" as="geometry">
            <mxPoint x="231" y="500" as="sourcePoint" />
            <mxPoint x="280" y="510" as="targetPoint" />
            <Array as="points" />
          </mxGeometry>
        </mxCell>
        <mxCell id="azn0IxoJgEsQa8XEMjjl-70" value="Cooling Water" style="text;html=1;align=center;verticalAlign=middle;resizable=0;points=[];autosize=1;strokeColor=none;fillColor=none;" vertex="1" parent="1">
          <mxGeometry x="170" y="508" width="100" height="30" as="geometry" />
        </mxCell>
      </root>
    </mxGraphModel>
  </diagram>
</mxfile>
